<svg xmlns="http://www.w3.org/2000/svg" xmlns:xlink="http://www.w3.org/1999/xlink" x="0px" y="0px" viewBox="0 0 270 162" style="enable-background:new 0 0 270 162;" xml:space="preserve"><style type="text/css">	.st0{display:none;}	.st1{display:inline;}	.st2{fill:#212121;}	.st3{fill:none;stroke:#212121;stroke-width:1.3921;stroke-linecap:square;stroke-miterlimit:10;}	.st4{fill:none;stroke:#212121;stroke-width:1.3925;stroke-linecap:square;stroke-miterlimit:10;}	.st5{fill:none;}	.st6{fill:#DED9D3;}	.st7{fill:none;stroke:#DED9D3;stroke-width:1.3921;stroke-linecap:square;stroke-miterlimit:10;}	.st8{fill:none;stroke:#DED9D3;stroke-width:1.3925;stroke-linecap:square;stroke-miterlimit:10;}	.st9{fill:#DED9D3;stroke:#DEDAD4;stroke-width:0.8;stroke-miterlimit:10;}	.st10{display:inline;fill:#DED9D3;stroke:#DEDAD4;stroke-width:0.8;stroke-miterlimit:10;}	.st11{fill:none;stroke:#212121;stroke-width:1.5314;stroke-linecap:square;stroke-miterlimit:10;}	.st12{fill:none;stroke:#212121;stroke-width:1.5317;stroke-linecap:square;stroke-miterlimit:10;}</style><g id="LOGO_officiel_-_noir" class="st0">	<g class="st1">		<g id="Armoires_11_">			<polyline class="st2" points="135,30.53 163.89,43.95 106.11,43.95 135,30.53 163.89,43.95 163.89,62.43 106.15,62.43      106.15,62.44 106.11,62.44 106.11,43.95    "></polyline>			<path class="st2" d="M104.29,44.79v40.02H73.32V59.1l0.01-0.01L104.29,44.79z M102.61,62.63v-8.84h-1.38v8.84H102.61z"></path>			<path class="st2" d="M165.68,44.79v40.02h30.97V59.1l-0.01-0.01L165.68,44.79z M167.35,62.63v-8.84h1.38v8.84H167.35z"></path>			<g>				<path class="st2" d="M163.85,64.25v20.49h-13.03V64.25H163.85z M153.86,74.24V65.4h-1.39v8.84H153.86z"></path>			</g>			<g>				<path class="st2" d="M135.93,64.25v20.49h13.03V64.25H135.93z M145.92,74.24V65.4h1.39v8.84H145.92z"></path>			</g>			<path class="st2" d="M106.14,84.75v-5.62h27.98v5.62H106.14z M125.24,82.62v-1.38h-10.26v1.38H125.24z"></path>			<path class="st2" d="M106.14,69.87v-5.62h27.98v5.62H106.14z M125.24,67.74v-1.38h-10.26v1.38H125.24z"></path>			<path class="st2" d="M106.14,77.3v-5.62h27.98v5.62H106.14z M125.24,75.17v-1.38h-10.26v1.38H125.24z"></path>		</g>		<g id="Maison_bas_24_">			<g>				<g>					<line class="st3" x1="205.34" y1="134.26" x2="64.66" y2="134.26"></line>					<line class="st4" x1="205.35" y1="134.26" x2="205.35" y2="120.63"></line>					<line class="st4" x1="64.65" y1="134.26" x2="64.65" y2="120.63"></line>				</g>			</g>		</g>		<g>			<line class="st4" x1="205.35" y1="83.81" x2="205.35" y2="53.85"></line>			<line class="st4" x1="64.65" y1="83.81" x2="64.65" y2="53.85"></line>			<polyline class="st4" points="205.12,53.49 135,20.87 64.88,53.49    "></polyline>		</g>		<g>			<rect x="13.86" y="91.25" class="st5" width="242.29" height="18.71"></rect>			<path class="st2" d="M23.04,91.44v0.96H16.3v3.25h6.35v0.96H16.3v3.56h7v0.96H15v-9.7H23.04z"></path>			<path class="st2" d="M33.53,91.99c0.76,0.52,1.19,1.29,1.3,2.31h-1.29c-0.14-0.71-0.46-1.22-0.95-1.56     c-0.51-0.35-1.22-0.52-2.14-0.52c-0.84,0-1.49,0.11-1.97,0.35c-0.54,0.27-0.81,0.68-0.81,1.24c0,0.49,0.32,0.88,0.97,1.18     c0.29,0.14,0.98,0.34,2.08,0.61c1.49,0.38,2.48,0.69,2.95,0.94c0.94,0.49,1.41,1.17,1.41,2.05c0,0.84-0.4,1.52-1.19,2.01     c-0.79,0.47-1.86,0.72-3.21,0.72c-1.33,0-2.38-0.25-3.15-0.73c-0.89-0.58-1.38-1.47-1.48-2.66h1.29     c0.11,0.84,0.46,1.47,1.03,1.86c0.52,0.35,1.29,0.54,2.3,0.54c0.92,0,1.68-0.15,2.26-0.45s0.86-0.71,0.86-1.22     c0-0.61-0.38-1.09-1.13-1.43c-0.32-0.16-1.13-0.39-2.4-0.71c-1.37-0.35-2.24-0.62-2.6-0.79c-0.87-0.43-1.3-1.06-1.3-1.87     c0-0.84,0.41-1.51,1.25-1.97c0.75-0.43,1.72-0.65,2.89-0.65C31.78,91.25,32.8,91.49,33.53,91.99z"></path>			<path class="st2" d="M42.96,91.44c2.6,0,3.91,0.95,3.91,2.85c0,1.92-1.32,2.88-3.92,2.88h-3.32v3.97h-1.3v-9.7H42.96z      M39.63,96.2h3.26c0.92,0,1.59-0.16,2.03-0.48c0.43-0.31,0.65-0.79,0.65-1.44c0-0.65-0.22-1.13-0.67-1.41     c-0.44-0.33-1.11-0.48-2.02-0.48h-3.26V96.2z"></path>			<path class="st2" d="M54.94,91.44l4.46,9.7h-1.41l-1.21-2.72h-5.21l-1.21,2.72h-1.4l4.46-9.7H54.94z M56.37,97.48l-2.14-4.85     h-0.06l-2.18,4.85H56.37z"></path>			<path class="st2" d="M70.2,92.1c0.86,0.57,1.37,1.34,1.52,2.31h-1.25c-0.16-0.71-0.57-1.25-1.21-1.63     c-0.62-0.37-1.37-0.54-2.26-0.54c-1.32,0-2.33,0.39-3.05,1.18c-0.67,0.73-1,1.7-1,2.91c0,1.21,0.32,2.17,0.98,2.88     c0.7,0.75,1.7,1.13,3.03,1.13c0.91,0,1.67-0.2,2.3-0.61c0.67-0.43,1.13-1.07,1.35-1.92h1.25c-0.25,1.13-0.84,2.01-1.78,2.63     c-0.87,0.58-1.92,0.88-3.13,0.88c-1.76,0-3.11-0.5-4.05-1.49c-0.86-0.9-1.27-2.06-1.27-3.5s0.43-2.62,1.3-3.54     c0.95-1.03,2.32-1.54,4.07-1.54C68.27,91.25,69.34,91.53,70.2,92.1z"></path>			<path class="st2" d="M83.31,91.44v0.96h-6.73v3.25h6.35v0.96h-6.35v3.56h7v0.96h-8.31v-9.7H83.31z"></path>			<path class="st2" d="M100.68,91.99c0.76,0.52,1.19,1.29,1.3,2.31h-1.29c-0.14-0.71-0.46-1.22-0.95-1.56     c-0.51-0.35-1.22-0.52-2.14-0.52c-0.84,0-1.49,0.11-1.97,0.35c-0.54,0.27-0.81,0.68-0.81,1.24c0,0.49,0.32,0.88,0.97,1.18     c0.29,0.14,0.98,0.34,2.08,0.61c1.49,0.38,2.48,0.69,2.95,0.94c0.94,0.49,1.41,1.17,1.41,2.05c0,0.84-0.4,1.52-1.19,2.01     c-0.79,0.47-1.86,0.72-3.21,0.72c-1.33,0-2.38-0.25-3.15-0.73c-0.89-0.58-1.38-1.47-1.48-2.66h1.29     c0.11,0.84,0.46,1.47,1.03,1.86c0.52,0.35,1.29,0.54,2.3,0.54c0.92,0,1.68-0.15,2.26-0.45s0.86-0.71,0.86-1.22     c0-0.61-0.38-1.09-1.13-1.43c-0.32-0.16-1.13-0.39-2.4-0.71c-1.37-0.35-2.24-0.62-2.6-0.79c-0.87-0.43-1.3-1.06-1.3-1.87     c0-0.84,0.41-1.51,1.25-1.97c0.75-0.43,1.72-0.65,2.89-0.65C98.94,91.25,99.95,91.49,100.68,91.99z"></path>			<path class="st2" d="M106.78,91.44v5.99c0,0.95,0.24,1.67,0.75,2.16c0.52,0.5,1.35,0.76,2.48,0.76c1.11,0,1.94-0.26,2.48-0.76     c0.49-0.49,0.75-1.21,0.75-2.16v-5.99h1.3v5.98c0,1.26-0.38,2.23-1.13,2.89c-0.78,0.68-1.91,1.02-3.4,1.02s-2.62-0.34-3.38-1     c-0.76-0.68-1.14-1.64-1.14-2.91v-5.98H106.78z"></path>			<path class="st2" d="M123.3,91.44c1.13,0,2.02,0.22,2.67,0.67c0.67,0.46,1.02,1.14,1.02,2.04c0,0.54-0.17,1.02-0.52,1.44     c-0.38,0.43-0.89,0.71-1.54,0.84v0.03c1.08,0.2,1.68,0.79,1.81,1.77l0.17,1.49c0.06,0.6,0.27,1.07,0.6,1.43h-1.41     c-0.25-0.33-0.41-0.75-0.46-1.29l-0.14-1.29c-0.06-0.57-0.3-0.99-0.71-1.24c-0.38-0.24-0.92-0.35-1.64-0.35h-3.43v4.17h-1.3v-9.7     H123.3z M119.71,96h3.43c0.83,0,1.48-0.18,1.92-0.5c0.4-0.31,0.6-0.75,0.6-1.32c0-0.6-0.21-1.05-0.59-1.33     c-0.41-0.3-1.06-0.45-1.94-0.45h-3.43V96z"></path>			<path class="st2" d="M139.22,91.44l4.23,8.27h0.05l4.21-8.27h1.62v9.7h-1.3v-7.71h-0.05l-3.92,7.71h-1.18l-3.92-7.71h-0.05v7.71     h-1.3v-9.7H139.22z"></path>			<path class="st2" d="M161.23,91.44v0.96h-6.74v3.25h6.35v0.96h-6.35v3.56h7v0.96h-8.31v-9.7H161.23z"></path>			<path class="st2" d="M171.73,91.99c0.76,0.52,1.19,1.29,1.3,2.31h-1.29c-0.14-0.71-0.46-1.22-0.95-1.56     c-0.51-0.35-1.22-0.52-2.14-0.52c-0.84,0-1.49,0.11-1.97,0.35c-0.54,0.27-0.81,0.68-0.81,1.24c0,0.49,0.32,0.88,0.97,1.18     c0.29,0.14,0.98,0.34,2.08,0.61c1.49,0.38,2.48,0.69,2.96,0.94c0.94,0.49,1.41,1.17,1.41,2.05c0,0.84-0.4,1.52-1.19,2.01     c-0.79,0.47-1.86,0.72-3.21,0.72c-1.33,0-2.38-0.25-3.15-0.73c-0.89-0.58-1.38-1.47-1.48-2.66h1.29     c0.11,0.84,0.46,1.47,1.03,1.86c0.52,0.35,1.29,0.54,2.3,0.54c0.92,0,1.68-0.15,2.26-0.45c0.57-0.3,0.86-0.71,0.86-1.22     c0-0.61-0.38-1.09-1.13-1.43c-0.32-0.16-1.13-0.39-2.4-0.71c-1.37-0.35-2.24-0.62-2.61-0.79c-0.87-0.43-1.3-1.06-1.3-1.87     c0-0.84,0.41-1.51,1.25-1.97c0.75-0.43,1.71-0.65,2.89-0.65C169.98,91.25,171,91.49,171.73,91.99z"></path>			<path class="st2" d="M177.82,91.44v5.99c0,0.95,0.24,1.67,0.75,2.16c0.52,0.5,1.35,0.76,2.48,0.76c1.11,0,1.94-0.26,2.48-0.76     c0.49-0.49,0.75-1.21,0.75-2.16v-5.99h1.3v5.98c0,1.26-0.38,2.23-1.13,2.89c-0.78,0.68-1.91,1.02-3.4,1.02s-2.62-0.34-3.38-1     c-0.76-0.68-1.14-1.64-1.14-2.91v-5.98H177.82z"></path>			<path class="st2" d="M194.34,91.44c1.13,0,2.02,0.22,2.67,0.67c0.67,0.46,1.02,1.14,1.02,2.04c0,0.54-0.17,1.02-0.52,1.44     c-0.38,0.43-0.89,0.71-1.54,0.84v0.03c1.08,0.2,1.68,0.79,1.81,1.77l0.17,1.49c0.06,0.6,0.27,1.07,0.6,1.43h-1.41     c-0.25-0.33-0.41-0.75-0.46-1.29l-0.14-1.29c-0.06-0.57-0.3-0.99-0.71-1.24c-0.38-0.24-0.92-0.35-1.64-0.35h-3.43v4.17h-1.3v-9.7     H194.34z M190.75,96h3.43c0.83,0,1.48-0.18,1.92-0.5c0.4-0.31,0.6-0.75,0.6-1.32c0-0.6-0.21-1.05-0.59-1.33     c-0.41-0.3-1.06-0.45-1.94-0.45h-3.43V96z"></path>			<path class="st2" d="M209.81,91.44v0.96h-6.74v3.25h6.35v0.96h-6.35v3.56h7v0.96h-8.31v-9.7H209.81z"></path>			<path class="st2" d="M221.73,91.44v9.7h-1.29v-9.7H221.73z"></path>			<path class="st2" d="M227.07,91.44l6.42,7.89h0.05v-7.89h1.3v9.7h-1.33l-6.45-7.97H227v7.97h-1.3v-9.7H227.07z"></path>			<path class="st2" d="M246.77,92.1c0.86,0.57,1.37,1.34,1.53,2.31h-1.25c-0.16-0.71-0.57-1.25-1.21-1.63     c-0.62-0.37-1.37-0.54-2.25-0.54c-1.32,0-2.33,0.39-3.05,1.18c-0.67,0.73-1,1.7-1,2.91c0,1.21,0.32,2.17,0.98,2.88     c0.7,0.75,1.7,1.13,3.03,1.13c0.91,0,1.67-0.2,2.3-0.61c0.67-0.43,1.13-1.07,1.35-1.92h1.25c-0.25,1.13-0.84,2.01-1.78,2.63     c-0.87,0.58-1.92,0.88-3.13,0.88c-1.76,0-3.11-0.5-4.05-1.49c-0.86-0.9-1.27-2.06-1.27-3.5s0.43-2.62,1.3-3.54     c0.95-1.03,2.32-1.54,4.07-1.54C244.85,91.25,245.92,91.53,246.77,92.1z"></path>			<path class="st2" d="M253.49,99.76c0.19,0.16,0.29,0.35,0.29,0.6c0,0.23-0.09,0.42-0.29,0.58c-0.19,0.16-0.43,0.25-0.68,0.25     c-0.29,0-0.51-0.08-0.68-0.25c-0.19-0.16-0.29-0.35-0.29-0.58c0-0.24,0.09-0.43,0.29-0.6c0.17-0.16,0.4-0.24,0.68-0.24     C253.06,99.52,253.3,99.6,253.49,99.76z"></path>		</g>		<g>			<rect x="40.31" y="108.13" class="st5" width="189.37" height="8.64"></rect>			<path class="st2" d="M43.76,108.23c0.64,0,1.16,0.13,1.53,0.39c0.37,0.27,0.56,0.65,0.56,1.15c0,0.33-0.11,0.61-0.31,0.86     c-0.22,0.25-0.53,0.42-0.93,0.5v0.02c0.66,0.13,1.03,0.47,1.1,1.04l0.09,0.84c0.04,0.35,0.14,0.62,0.32,0.83h-0.62     c-0.14-0.19-0.22-0.45-0.26-0.76l-0.08-0.77c-0.04-0.35-0.19-0.6-0.45-0.75c-0.24-0.14-0.58-0.21-1-0.21h-2.17v2.5h-0.56v-5.62     H43.76z M41.55,110.93h2.16c0.52,0,0.91-0.11,1.2-0.32c0.26-0.2,0.39-0.47,0.39-0.82c0-0.38-0.13-0.65-0.38-0.84     c-0.26-0.2-0.66-0.29-1.21-0.29h-2.15V110.93z"></path>			<path class="st2" d="M52.27,108.23v0.43h-4.05v2.07h3.83v0.43h-3.83v2.27h4.21v0.42h-4.77v-5.62H52.27z M50.97,106.76l-1.22,1.15     h-0.4l0.97-1.15H50.97z"></path>			<path class="st2" d="M54.68,108.23l3.97,4.87h0.03v-4.87h0.57v5.62h-0.63l-3.99-4.91H54.6v4.91h-0.56v-5.62H54.68z"></path>			<path class="st2" d="M66.29,108.97c0.53,0.54,0.8,1.22,0.8,2.07c0,0.85-0.27,1.54-0.8,2.08c-0.57,0.56-1.33,0.84-2.31,0.84     c-0.98,0-1.75-0.28-2.31-0.85c-0.53-0.54-0.8-1.23-0.8-2.07c0-0.84,0.27-1.54,0.8-2.07c0.57-0.57,1.34-0.85,2.32-0.85     C64.96,108.12,65.72,108.41,66.29,108.97z M62.09,109.27c-0.44,0.46-0.66,1.05-0.66,1.77c0,0.73,0.21,1.32,0.65,1.77     c0.46,0.47,1.09,0.71,1.9,0.71c0.8,0,1.43-0.24,1.89-0.7c0.44-0.45,0.66-1.04,0.66-1.78s-0.22-1.34-0.66-1.78     c-0.46-0.47-1.09-0.7-1.88-0.7C63.19,108.56,62.55,108.8,62.09,109.27z"></path>			<path class="st2" d="M68.71,108.23l2.2,5.11h0.03l2.2-5.11h0.63l-2.48,5.62h-0.72l-2.48-5.62H68.71z"></path>			<path class="st2" d="M77.65,108.23l2.63,5.62h-0.62l-0.76-1.68h-3.17l-0.76,1.68h-0.62l2.63-5.62H77.65z M78.72,111.77     l-1.38-3.01h-0.03l-1.39,3.01H78.72z"></path>			<path class="st2" d="M86.39,108.23v0.43h-2.41v5.2h-0.56v-5.2H81v-0.43H86.39z"></path>			<path class="st2" d="M88.42,108.23v5.62h-0.56v-5.62H88.42z"></path>			<path class="st2" d="M95.54,108.97c0.53,0.54,0.8,1.22,0.8,2.07c0,0.85-0.27,1.54-0.8,2.08c-0.57,0.56-1.33,0.84-2.31,0.84     c-0.98,0-1.75-0.28-2.31-0.85c-0.53-0.54-0.8-1.23-0.8-2.07c0-0.84,0.27-1.54,0.8-2.07c0.57-0.57,1.34-0.85,2.32-0.85     C94.21,108.12,94.97,108.41,95.54,108.97z M91.35,109.27c-0.44,0.46-0.66,1.05-0.66,1.77c0,0.73,0.21,1.32,0.65,1.77     c0.46,0.47,1.09,0.71,1.9,0.71c0.8,0,1.43-0.24,1.89-0.7c0.44-0.45,0.66-1.04,0.66-1.78s-0.22-1.34-0.66-1.78     c-0.46-0.47-1.09-0.7-1.88-0.7C92.44,108.56,91.81,108.8,91.35,109.27z"></path>			<path class="st2" d="M98.6,108.23l3.97,4.87h0.03v-4.87h0.57v5.62h-0.63l-3.99-4.91h-0.03v4.91h-0.56v-5.62H98.6z"></path>			<path class="st2" d="M109.5,111.61v0.41h-4.65v-0.41H109.5z"></path>			<path class="st2" d="M111.83,108.23v5.62h-0.56v-5.62H111.83z"></path>			<path class="st2" d="M114.44,108.23l3.97,4.87h0.03v-4.87h0.57v5.62h-0.63l-3.99-4.91h-0.03v4.91h-0.56v-5.62H114.44z"></path>			<path class="st2" d="M124.77,108.57c0.43,0.3,0.68,0.74,0.74,1.32h-0.56c-0.07-0.44-0.27-0.77-0.58-1     c-0.31-0.23-0.75-0.34-1.32-0.34c-0.53,0-0.95,0.08-1.25,0.24c-0.35,0.17-0.52,0.44-0.52,0.79c0,0.32,0.2,0.56,0.62,0.75     c0.19,0.08,0.62,0.21,1.26,0.36c0.84,0.21,1.4,0.38,1.69,0.54c0.54,0.28,0.82,0.67,0.82,1.18c0,0.48-0.24,0.87-0.71,1.15     c-0.45,0.27-1.05,0.4-1.79,0.4c-0.75,0-1.35-0.15-1.78-0.44c-0.5-0.34-0.77-0.85-0.83-1.53h0.55c0.06,0.53,0.28,0.92,0.64,1.18     c0.33,0.23,0.8,0.35,1.41,0.35c0.58,0,1.05-0.1,1.41-0.29c0.35-0.2,0.53-0.46,0.53-0.79c0-0.39-0.23-0.69-0.67-0.9     c-0.22-0.11-0.7-0.26-1.44-0.43c-0.78-0.19-1.29-0.34-1.51-0.45c-0.51-0.24-0.75-0.6-0.75-1.06c0-0.49,0.23-0.86,0.71-1.12     c0.42-0.24,0.98-0.36,1.64-0.36C123.77,108.12,124.34,108.27,124.77,108.57z"></path>			<path class="st2" d="M132.06,108.23v0.43h-2.41v5.2h-0.56v-5.2h-2.41v-0.43H132.06z"></path>			<path class="st2" d="M136.08,108.23l2.63,5.62h-0.62l-0.76-1.68h-3.17l-0.76,1.68h-0.62l2.63-5.62H136.08z M137.14,111.77     l-1.38-3.01h-0.03l-1.39,3.01H137.14z"></path>			<path class="st2" d="M140.49,108.23v5.2h3.95v0.42h-4.51v-5.62H140.49z"></path>			<path class="st2" d="M146.44,108.23v5.2h3.95v0.42h-4.51v-5.62H146.44z"></path>			<path class="st2" d="M154.44,108.23l2.63,5.62h-0.62l-0.76-1.68h-3.17l-0.76,1.68h-0.62l2.63-5.62H154.44z M155.51,111.77     l-1.38-3.01h-0.03l-1.39,3.01H155.51z"></path>			<path class="st2" d="M163.17,108.23v0.43h-2.41v5.2h-0.56v-5.2h-2.41v-0.43H163.17z"></path>			<path class="st2" d="M165.21,108.23v5.62h-0.56v-5.62H165.21z"></path>			<path class="st2" d="M172.33,108.97c0.53,0.54,0.8,1.22,0.8,2.07c0,0.85-0.27,1.54-0.8,2.08c-0.57,0.56-1.33,0.84-2.31,0.84     c-0.98,0-1.75-0.28-2.31-0.85c-0.53-0.54-0.8-1.23-0.8-2.07c0-0.84,0.27-1.54,0.8-2.07c0.57-0.57,1.34-0.85,2.32-0.85     C171,108.12,171.76,108.41,172.33,108.97z M168.13,109.27c-0.44,0.46-0.66,1.05-0.66,1.77c0,0.73,0.21,1.32,0.65,1.77     c0.46,0.47,1.09,0.71,1.9,0.71c0.8,0,1.43-0.24,1.89-0.7c0.44-0.45,0.66-1.04,0.66-1.78s-0.22-1.34-0.66-1.78     c-0.46-0.47-1.09-0.7-1.88-0.7C169.23,108.56,168.59,108.8,168.13,109.27z"></path>			<path class="st2" d="M175.39,108.23l3.97,4.87h0.03v-4.87h0.57v5.62h-0.63l-3.99-4.91h-0.03v4.91h-0.56v-5.62H175.39z"></path>			<path class="st2" d="M186.29,111.61v0.41h-4.65v-0.41H186.29z"></path>			<path class="st2" d="M192.33,108.23v0.43h-3.79v2.09h3.6v0.43h-3.6v2.68h-0.56v-5.62H192.33z"></path>			<path class="st2" d="M194.45,108.23v5.62h-0.56v-5.62H194.45z"></path>			<path class="st2" d="M197.07,108.23l3.97,4.87h0.03v-4.87h0.57v5.62h-0.63l-3.99-4.91h-0.03v4.91h-0.56v-5.62H197.07z"></path>			<path class="st2" d="M204.18,108.23v5.62h-0.56v-5.62H204.18z"></path>			<path class="st2" d="M211.03,108.23v0.43h-2.41v5.2h-0.56v-5.2h-2.41v-0.43H211.03z"></path>			<path class="st2" d="M213.07,108.23v5.62h-0.56v-5.62H213.07z"></path>			<path class="st2" d="M220.19,108.97c0.53,0.54,0.8,1.22,0.8,2.07c0,0.85-0.27,1.54-0.8,2.08c-0.57,0.56-1.33,0.84-2.31,0.84     c-0.98,0-1.75-0.28-2.31-0.85c-0.53-0.54-0.8-1.23-0.8-2.07c0-0.84,0.27-1.54,0.8-2.07c0.57-0.57,1.34-0.85,2.32-0.85     C218.85,108.12,219.62,108.41,220.19,108.97z M215.99,109.27c-0.44,0.46-0.66,1.05-0.66,1.77c0,0.73,0.21,1.32,0.65,1.77     c0.46,0.47,1.09,0.71,1.9,0.71c0.8,0,1.43-0.24,1.89-0.7c0.44-0.45,0.66-1.04,0.66-1.78s-0.22-1.34-0.66-1.78     c-0.46-0.47-1.09-0.7-1.88-0.7C217.09,108.56,216.45,108.8,215.99,109.27z"></path>			<path class="st2" d="M223.25,108.23l3.97,4.87h0.03v-4.87h0.57v5.62h-0.63l-3.99-4.91h-0.03v4.91h-0.56v-5.62H223.25z"></path>		</g>	</g></g><g id="LOGO_officiel_-_beige_-_copie" class="st0">	<g class="st1">		<g id="Armoires_1_">			<polyline class="st6" points="135,30.53 163.89,43.95 106.11,43.95 135,30.53 163.89,43.95 163.89,62.43 106.15,62.43      106.15,62.44 106.11,62.44 106.11,43.95    "></polyline>			<path class="st6" d="M104.29,44.79v40.02H73.32V59.1l0.01-0.01L104.29,44.79z M102.61,62.63v-8.84h-1.38v8.84H102.61z"></path>			<path class="st6" d="M165.68,44.79v40.02h30.97V59.1l-0.01-0.01L165.68,44.79z M167.35,62.63v-8.84h1.38v8.84H167.35z"></path>			<g>				<path class="st6" d="M163.85,64.25v20.49h-13.03V64.25H163.85z M153.86,74.24V65.4h-1.39v8.84H153.86z"></path>			</g>			<g>				<path class="st6" d="M135.93,64.25v20.49h13.03V64.25H135.93z M145.92,74.24V65.4h1.39v8.84H145.92z"></path>			</g>			<path class="st6" d="M106.14,84.75v-5.62h27.98v5.62H106.14z M125.24,82.62v-1.38h-10.26v1.38H125.24z"></path>			<path class="st6" d="M106.14,69.87v-5.62h27.98v5.62H106.14z M125.24,67.74v-1.38h-10.26v1.38H125.24z"></path>			<path class="st6" d="M106.14,77.3v-5.62h27.98v5.62H106.14z M125.24,75.17v-1.38h-10.26v1.38H125.24z"></path>		</g>		<g id="Maison_bas_1_">			<g>				<g>					<line class="st7" x1="205.34" y1="134.26" x2="64.66" y2="134.26"></line>					<line class="st8" x1="205.35" y1="134.26" x2="205.35" y2="120.63"></line>					<line class="st8" x1="64.65" y1="134.26" x2="64.65" y2="120.63"></line>				</g>			</g>		</g>		<g>			<line class="st8" x1="205.35" y1="83.81" x2="205.35" y2="53.85"></line>			<line class="st8" x1="64.65" y1="83.81" x2="64.65" y2="53.85"></line>			<polyline class="st8" points="205.12,53.49 135,20.87 64.88,53.49    "></polyline>		</g>		<g>			<rect x="13.86" y="91.25" class="st5" width="242.29" height="18.71"></rect>			<path class="st9" d="M23.04,91.44v0.96h-6.73v3.25h6.35v0.96h-6.35v3.56h7v0.96H15v-9.7H23.04z"></path>			<path class="st9" d="M33.54,91.99c0.76,0.52,1.19,1.29,1.3,2.31h-1.29c-0.14-0.71-0.46-1.22-0.95-1.56     c-0.51-0.35-1.22-0.52-2.14-0.52c-0.84,0-1.49,0.11-1.97,0.35c-0.54,0.27-0.81,0.68-0.81,1.24c0,0.49,0.32,0.88,0.97,1.18     c0.29,0.14,0.98,0.34,2.08,0.61c1.49,0.38,2.48,0.69,2.95,0.94c0.94,0.49,1.41,1.17,1.41,2.05c0,0.84-0.4,1.52-1.19,2.01     c-0.79,0.47-1.86,0.72-3.21,0.72c-1.33,0-2.38-0.25-3.15-0.73c-0.89-0.58-1.38-1.47-1.48-2.66h1.29     c0.11,0.84,0.46,1.47,1.03,1.86c0.52,0.35,1.29,0.54,2.3,0.54c0.92,0,1.68-0.15,2.26-0.45s0.86-0.71,0.86-1.22     c0-0.61-0.38-1.09-1.13-1.43c-0.32-0.16-1.13-0.39-2.4-0.71c-1.37-0.35-2.24-0.62-2.6-0.79c-0.87-0.43-1.3-1.06-1.3-1.87     c0-0.84,0.41-1.51,1.25-1.97c0.75-0.43,1.72-0.65,2.89-0.65C31.79,91.25,32.81,91.49,33.54,91.99z"></path>			<path class="st9" d="M42.97,91.44c2.61,0,3.91,0.95,3.91,2.85c0,1.92-1.32,2.88-3.92,2.88h-3.32v3.97h-1.3v-9.7H42.97z      M39.63,96.2h3.26c0.92,0,1.59-0.16,2.03-0.48c0.43-0.31,0.65-0.79,0.65-1.44c0-0.65-0.22-1.13-0.67-1.41     c-0.44-0.33-1.11-0.48-2.02-0.48h-3.26V96.2z"></path>			<path class="st9" d="M54.94,91.44l4.46,9.7h-1.41l-1.21-2.72h-5.21l-1.21,2.72h-1.4l4.46-9.7H54.94z M56.37,97.48l-2.14-4.85     h-0.06l-2.18,4.85H56.37z"></path>			<path class="st9" d="M70.2,92.1c0.86,0.57,1.37,1.34,1.52,2.31h-1.25c-0.16-0.71-0.57-1.25-1.21-1.63     c-0.62-0.37-1.37-0.54-2.26-0.54c-1.32,0-2.33,0.39-3.05,1.18c-0.67,0.73-1,1.7-1,2.91c0,1.21,0.32,2.17,0.98,2.88     c0.7,0.75,1.7,1.13,3.03,1.13c0.91,0,1.67-0.2,2.3-0.61c0.67-0.43,1.13-1.07,1.35-1.92h1.25c-0.25,1.13-0.84,2.01-1.78,2.63     c-0.87,0.58-1.92,0.88-3.13,0.88c-1.76,0-3.11-0.5-4.05-1.49c-0.86-0.9-1.27-2.06-1.27-3.5s0.43-2.62,1.3-3.54     c0.95-1.03,2.32-1.54,4.07-1.54C68.28,91.25,69.34,91.53,70.2,92.1z"></path>			<path class="st9" d="M83.32,91.44v0.96h-6.73v3.25h6.35v0.96h-6.35v3.56h7v0.96h-8.31v-9.7H83.32z"></path>			<path class="st9" d="M100.69,91.99c0.76,0.52,1.19,1.29,1.3,2.31h-1.29c-0.14-0.71-0.46-1.22-0.95-1.56     c-0.51-0.35-1.22-0.52-2.14-0.52c-0.84,0-1.49,0.11-1.97,0.35c-0.54,0.27-0.81,0.68-0.81,1.24c0,0.49,0.32,0.88,0.97,1.18     c0.29,0.14,0.98,0.34,2.08,0.61c1.49,0.38,2.48,0.69,2.95,0.94c0.94,0.49,1.41,1.17,1.41,2.05c0,0.84-0.4,1.52-1.19,2.01     c-0.79,0.47-1.86,0.72-3.21,0.72c-1.33,0-2.38-0.25-3.15-0.73c-0.89-0.58-1.38-1.47-1.48-2.66h1.29     c0.11,0.84,0.46,1.47,1.03,1.86c0.52,0.35,1.29,0.54,2.3,0.54c0.92,0,1.68-0.15,2.26-0.45s0.86-0.71,0.86-1.22     c0-0.61-0.38-1.09-1.13-1.43c-0.32-0.16-1.13-0.39-2.4-0.71c-1.37-0.35-2.24-0.62-2.6-0.79c-0.87-0.43-1.3-1.06-1.3-1.87     c0-0.84,0.41-1.51,1.25-1.97c0.75-0.43,1.72-0.65,2.89-0.65C98.94,91.25,99.96,91.49,100.69,91.99z"></path>			<path class="st9" d="M106.79,91.44v5.99c0,0.95,0.24,1.67,0.75,2.16c0.52,0.5,1.35,0.76,2.48,0.76c1.11,0,1.94-0.26,2.48-0.76     c0.49-0.49,0.75-1.21,0.75-2.16v-5.99h1.3v5.98c0,1.26-0.38,2.23-1.13,2.89c-0.78,0.68-1.91,1.02-3.4,1.02s-2.62-0.34-3.38-1     c-0.76-0.68-1.14-1.64-1.14-2.91v-5.98H106.79z"></path>			<path class="st9" d="M123.3,91.44c1.13,0,2.02,0.22,2.67,0.67c0.67,0.46,1.02,1.14,1.02,2.04c0,0.54-0.17,1.02-0.52,1.44     c-0.38,0.43-0.89,0.71-1.54,0.84v0.03c1.08,0.2,1.68,0.79,1.81,1.77l0.17,1.49c0.06,0.6,0.27,1.07,0.6,1.43h-1.41     c-0.25-0.33-0.41-0.75-0.46-1.29l-0.14-1.29c-0.06-0.57-0.3-0.99-0.71-1.24c-0.38-0.24-0.92-0.35-1.64-0.35h-3.43v4.17h-1.3v-9.7     H123.3z M119.71,96h3.43c0.83,0,1.48-0.18,1.92-0.5c0.4-0.31,0.6-0.75,0.6-1.32c0-0.6-0.21-1.05-0.59-1.33     c-0.41-0.3-1.06-0.45-1.94-0.45h-3.43V96z"></path>			<path class="st9" d="M139.23,91.44l4.23,8.27h0.05l4.21-8.27h1.62v9.7h-1.3v-7.71h-0.05l-3.92,7.71h-1.18l-3.92-7.71h-0.05v7.71     h-1.3v-9.7H139.23z"></path>			<path class="st9" d="M161.24,91.44v0.96h-6.74v3.25h6.35v0.96h-6.35v3.56h7v0.96h-8.31v-9.7H161.24z"></path>			<path class="st9" d="M171.73,91.99c0.76,0.52,1.19,1.29,1.3,2.31h-1.29c-0.14-0.71-0.46-1.22-0.95-1.56     c-0.51-0.35-1.22-0.52-2.14-0.52c-0.84,0-1.49,0.11-1.97,0.35c-0.54,0.27-0.81,0.68-0.81,1.24c0,0.49,0.32,0.88,0.97,1.18     c0.29,0.14,0.98,0.34,2.08,0.61c1.49,0.38,2.48,0.69,2.96,0.94c0.94,0.49,1.41,1.17,1.41,2.05c0,0.84-0.4,1.52-1.19,2.01     c-0.79,0.47-1.86,0.72-3.21,0.72c-1.33,0-2.38-0.25-3.15-0.73c-0.89-0.58-1.38-1.47-1.48-2.66h1.29     c0.11,0.84,0.46,1.47,1.03,1.86c0.52,0.35,1.29,0.54,2.3,0.54c0.92,0,1.68-0.15,2.26-0.45c0.57-0.3,0.86-0.71,0.86-1.22     c0-0.61-0.38-1.09-1.13-1.43c-0.32-0.16-1.13-0.39-2.4-0.71c-1.37-0.35-2.24-0.62-2.61-0.79c-0.87-0.43-1.3-1.06-1.3-1.87     c0-0.84,0.41-1.51,1.25-1.97c0.75-0.43,1.71-0.65,2.89-0.65C169.99,91.25,171,91.49,171.73,91.99z"></path>			<path class="st9" d="M177.83,91.44v5.99c0,0.95,0.24,1.67,0.75,2.16c0.52,0.5,1.35,0.76,2.48,0.76c1.11,0,1.94-0.26,2.48-0.76     c0.49-0.49,0.75-1.21,0.75-2.16v-5.99h1.3v5.98c0,1.26-0.38,2.23-1.13,2.89c-0.78,0.68-1.91,1.02-3.4,1.02s-2.62-0.34-3.38-1     c-0.76-0.68-1.14-1.64-1.14-2.91v-5.98H177.83z"></path>			<path class="st9" d="M194.35,91.44c1.13,0,2.02,0.22,2.67,0.67c0.67,0.46,1.02,1.14,1.02,2.04c0,0.54-0.17,1.02-0.52,1.44     c-0.38,0.43-0.89,0.71-1.54,0.84v0.03c1.08,0.2,1.68,0.79,1.81,1.77l0.17,1.49c0.06,0.6,0.27,1.07,0.6,1.43h-1.41     c-0.25-0.33-0.41-0.75-0.46-1.29l-0.14-1.29c-0.06-0.57-0.3-0.99-0.71-1.24c-0.38-0.24-0.92-0.35-1.64-0.35h-3.43v4.17h-1.3v-9.7     H194.35z M190.76,96h3.43c0.83,0,1.48-0.18,1.92-0.5c0.4-0.31,0.6-0.75,0.6-1.32c0-0.6-0.21-1.05-0.59-1.33     c-0.41-0.3-1.06-0.45-1.94-0.45h-3.43V96z"></path>			<path class="st9" d="M209.81,91.44v0.96h-6.74v3.25h6.35v0.96h-6.35v3.56h7v0.96h-8.31v-9.7H209.81z"></path>			<path class="st9" d="M221.74,91.44v9.7h-1.29v-9.7H221.74z"></path>			<path class="st9" d="M227.07,91.44l6.42,7.89h0.05v-7.89h1.3v9.7h-1.33l-6.45-7.97h-0.05v7.97h-1.3v-9.7H227.07z"></path>			<path class="st9" d="M246.78,92.1c0.86,0.57,1.37,1.34,1.53,2.31h-1.25c-0.16-0.71-0.57-1.25-1.21-1.63     c-0.62-0.37-1.37-0.54-2.25-0.54c-1.32,0-2.33,0.39-3.05,1.18c-0.67,0.73-1,1.7-1,2.91c0,1.21,0.32,2.17,0.98,2.88     c0.7,0.75,1.7,1.13,3.03,1.13c0.91,0,1.67-0.2,2.3-0.61c0.67-0.43,1.13-1.07,1.35-1.92h1.25c-0.25,1.13-0.84,2.01-1.78,2.63     c-0.87,0.58-1.92,0.88-3.13,0.88c-1.76,0-3.11-0.5-4.05-1.49c-0.86-0.9-1.27-2.06-1.27-3.5s0.43-2.62,1.3-3.54     c0.95-1.03,2.32-1.54,4.07-1.54C244.86,91.25,245.92,91.53,246.78,92.1z"></path>			<path class="st9" d="M253.5,99.76c0.19,0.16,0.29,0.35,0.29,0.6c0,0.23-0.09,0.42-0.29,0.58c-0.19,0.16-0.43,0.25-0.68,0.25     c-0.29,0-0.51-0.08-0.68-0.25c-0.19-0.16-0.29-0.35-0.29-0.58c0-0.24,0.09-0.43,0.29-0.6c0.17-0.16,0.4-0.24,0.68-0.24     C253.07,99.52,253.3,99.6,253.5,99.76z"></path>		</g>		<g>			<rect x="25.5" y="106.76" class="st5" width="219" height="10"></rect>			<path class="st6" d="M30.39,106.92c0.91,0,1.63,0.18,2.16,0.54c0.54,0.37,0.82,0.92,0.82,1.65c0,0.44-0.14,0.83-0.42,1.17     c-0.31,0.35-0.72,0.57-1.25,0.68v0.02c0.87,0.17,1.36,0.64,1.47,1.43l0.14,1.21c0.05,0.48,0.22,0.87,0.49,1.16h-1.15     c-0.21-0.26-0.33-0.61-0.37-1.04l-0.12-1.04c-0.05-0.46-0.24-0.8-0.58-1c-0.31-0.2-0.75-0.29-1.33-0.29h-2.78v3.38h-1.05v-7.86     H30.39z M27.48,110.61h2.78c0.67,0,1.2-0.14,1.56-0.41c0.32-0.25,0.49-0.61,0.49-1.07c0-0.48-0.17-0.85-0.48-1.08     c-0.33-0.24-0.86-0.36-1.57-0.36h-2.78V110.61z"></path>			<path class="st6" d="M40.86,106.92v0.78h-5.45v2.63h5.15v0.78h-5.15v2.88h5.67v0.78h-6.73v-7.86H40.86z M39.14,104.86l-1.76,1.61     h-0.71l1.3-1.61H39.14z"></path>			<path class="st6" d="M42.88,106.92l5.2,6.39h0.04v-6.39h1.05v7.86h-1.08l-5.22-6.46h-0.04v6.46h-1.05v-7.86H42.88z"></path>			<path class="st6" d="M57.52,107.94c0.75,0.75,1.13,1.72,1.13,2.92c0,1.19-0.39,2.15-1.13,2.89c-0.8,0.78-1.89,1.18-3.27,1.18     c-1.38,0-2.46-0.4-3.25-1.18c-0.76-0.75-1.13-1.72-1.13-2.89c0-1.19,0.37-2.16,1.13-2.9c0.8-0.79,1.88-1.19,3.27-1.19     C55.63,106.76,56.73,107.15,57.52,107.94z M51.77,108.5c-0.57,0.59-0.85,1.38-0.85,2.35c0,0.97,0.28,1.75,0.85,2.34     c0.59,0.62,1.43,0.92,2.48,0.92c1.05,0,1.89-0.31,2.48-0.9c0.57-0.59,0.86-1.38,0.86-2.37c0-1-0.3-1.79-0.86-2.39     c-0.59-0.61-1.42-0.9-2.47-0.9S52.38,107.87,51.77,108.5z"></path>			<path class="st6" d="M59.65,106.92l2.87,6.88h0.04l2.87-6.88h1.16l-3.4,7.86h-1.3l-3.4-7.86H59.65z"></path>			<path class="st6" d="M70.71,106.92l3.61,7.86h-1.15l-0.98-2.2h-4.22l-0.98,2.2h-1.13l3.61-7.86H70.71z M71.87,111.81l-1.74-3.93     h-0.05l-1.76,3.93H71.87z"></path>			<path class="st6" d="M81.3,106.92v0.78h-3.24v7.07h-1.04v-7.07h-3.24v-0.78H81.3z"></path>			<path class="st6" d="M82.79,106.92v7.86h-1.04v-7.86H82.79z"></path>			<path class="st6" d="M91.22,107.94c0.75,0.75,1.13,1.72,1.13,2.92c0,1.19-0.39,2.15-1.13,2.89c-0.8,0.78-1.89,1.18-3.27,1.18     c-1.38,0-2.46-0.4-3.25-1.18c-0.76-0.75-1.13-1.72-1.13-2.89c0-1.19,0.37-2.16,1.13-2.9c0.8-0.79,1.88-1.19,3.27-1.19     C89.33,106.76,90.42,107.15,91.22,107.94z M85.47,108.5c-0.57,0.59-0.85,1.38-0.85,2.35c0,0.97,0.28,1.75,0.85,2.34     c0.59,0.62,1.43,0.92,2.48,0.92c1.05,0,1.89-0.31,2.48-0.9c0.57-0.59,0.86-1.38,0.86-2.37c0-1-0.3-1.79-0.86-2.39     c-0.59-0.61-1.42-0.9-2.47-0.9S86.07,107.87,85.47,108.5z"></path>			<path class="st6" d="M94.15,106.92l5.2,6.39h0.04v-6.39h1.05v7.86h-1.08l-5.22-6.46H94.1v6.46h-1.05v-7.86H94.15z"></path>			<path class="st6" d="M107.74,111.55v0.75h-6.5v-0.75H107.74z"></path>			<path class="st6" d="M109.66,106.92v7.86h-1.04v-7.86H109.66z"></path>			<path class="st6" d="M111.92,106.92l5.2,6.39h0.04v-6.39h1.05v7.86h-1.08l-5.22-6.46h-0.04v6.46h-1.05v-7.86H111.92z"></path>			<path class="st6" d="M124.83,107.37c0.62,0.42,0.96,1.04,1.05,1.87h-1.04c-0.12-0.57-0.37-0.99-0.77-1.26     c-0.41-0.29-0.99-0.42-1.74-0.42c-0.68,0-1.21,0.09-1.6,0.29c-0.44,0.22-0.66,0.55-0.66,1c0,0.4,0.26,0.71,0.78,0.96     c0.23,0.11,0.8,0.28,1.69,0.5c1.21,0.31,2.01,0.56,2.39,0.76c0.76,0.4,1.14,0.95,1.14,1.66c0,0.68-0.32,1.23-0.96,1.63     c-0.64,0.38-1.5,0.58-2.6,0.58c-1.08,0-1.93-0.2-2.55-0.59c-0.72-0.47-1.12-1.19-1.2-2.16h1.04c0.09,0.68,0.37,1.19,0.84,1.51     c0.42,0.29,1.04,0.44,1.87,0.44c0.75,0,1.36-0.12,1.83-0.36c0.46-0.24,0.69-0.57,0.69-0.99c0-0.5-0.31-0.88-0.91-1.16     c-0.26-0.13-0.91-0.32-1.94-0.57c-1.11-0.29-1.81-0.51-2.11-0.64c-0.71-0.35-1.05-0.86-1.05-1.52c0-0.68,0.33-1.22,1.02-1.6     c0.6-0.35,1.39-0.53,2.34-0.53C123.41,106.76,124.24,106.96,124.83,107.37z"></path>			<path class="st6" d="M133.47,106.92v0.78h-3.24v7.07h-1.04v-7.07h-3.24v-0.78H133.47z"></path>			<path class="st6" d="M137.76,106.92l3.61,7.86h-1.14l-0.98-2.2h-4.22l-0.98,2.2h-1.13l3.61-7.86H137.76z M138.92,111.81     l-1.74-3.93h-0.05l-1.76,3.93H138.92z"></path>			<path class="st6" d="M142.57,106.92v7.07h5.31v0.78h-6.35v-7.86H142.57z"></path>			<path class="st6" d="M149.36,106.92v7.07h5.31v0.78h-6.35v-7.86H149.36z"></path>			<path class="st6" d="M159.03,106.92l3.61,7.86h-1.14l-0.98-2.2h-4.22l-0.98,2.2h-1.13l3.61-7.86H159.03z M160.18,111.81     l-1.74-3.93h-0.05l-1.76,3.93H160.18z"></path>			<path class="st6" d="M169.61,106.92v0.78h-3.24v7.07h-1.04v-7.07h-3.24v-0.78H169.61z"></path>			<path class="st6" d="M171.11,106.92v7.86h-1.04v-7.86H171.11z"></path>			<path class="st6" d="M179.53,107.94c0.75,0.75,1.13,1.72,1.13,2.92c0,1.19-0.39,2.15-1.13,2.89c-0.8,0.78-1.89,1.18-3.27,1.18     c-1.38,0-2.46-0.4-3.25-1.18c-0.76-0.75-1.13-1.72-1.13-2.89c0-1.19,0.37-2.16,1.13-2.9c0.8-0.79,1.88-1.19,3.27-1.19     C177.64,106.76,178.74,107.15,179.53,107.94z M173.78,108.5c-0.57,0.59-0.85,1.38-0.85,2.35c0,0.97,0.28,1.75,0.85,2.34     c0.59,0.62,1.43,0.92,2.48,0.92s1.89-0.31,2.48-0.9c0.57-0.59,0.86-1.38,0.86-2.37c0-1-0.3-1.79-0.86-2.39     c-0.59-0.61-1.42-0.9-2.47-0.9S174.39,107.87,173.78,108.5z"></path>			<path class="st6" d="M182.47,106.92l5.2,6.39h0.04v-6.39h1.05v7.86h-1.08l-5.22-6.46h-0.04v6.46h-1.05v-7.86H182.47z"></path>			<path class="st6" d="M196.05,111.55v0.75h-6.5v-0.75H196.05z"></path>			<path class="st6" d="M203,106.92v0.78h-5.09v2.64h4.82v0.78h-4.82v3.65h-1.05v-7.86H203z"></path>			<path class="st6" d="M204.62,106.92v7.86h-1.04v-7.86H204.62z"></path>			<path class="st6" d="M206.89,106.92l5.2,6.39h0.04v-6.39h1.05v7.86h-1.08l-5.22-6.46h-0.04v6.46h-1.05v-7.86H206.89z"></path>			<path class="st6" d="M215.38,106.92v7.86h-1.04v-7.86H215.38z"></path>			<path class="st6" d="M223.36,106.92v0.78h-3.24v7.07h-1.04v-7.07h-3.24v-0.78H223.36z"></path>			<path class="st6" d="M224.85,106.92v7.86h-1.04v-7.86H224.85z"></path>			<path class="st6" d="M233.28,107.94c0.75,0.75,1.13,1.72,1.13,2.92c0,1.19-0.39,2.15-1.13,2.89c-0.8,0.78-1.89,1.18-3.27,1.18     c-1.38,0-2.46-0.4-3.25-1.18c-0.76-0.75-1.13-1.72-1.13-2.89c0-1.19,0.37-2.16,1.13-2.9c0.8-0.79,1.88-1.19,3.27-1.19     C231.39,106.76,232.48,107.15,233.28,107.94z M227.53,108.5c-0.57,0.59-0.85,1.38-0.85,2.35c0,0.97,0.28,1.75,0.85,2.34     c0.59,0.62,1.43,0.92,2.48,0.92s1.89-0.31,2.48-0.9c0.57-0.59,0.86-1.38,0.86-2.37c0-1-0.3-1.79-0.86-2.39     c-0.59-0.61-1.42-0.9-2.47-0.9S228.13,107.87,227.53,108.5z"></path>			<path class="st6" d="M236.21,106.92l5.2,6.39h0.04v-6.39h1.05v7.86h-1.08l-5.22-6.46h-0.04v6.46h-1.05v-7.86H236.21z"></path>		</g>	</g></g><g id="LOGO_officiel">	<g>		<g id="Armoires_8_">			<polyline class="st6" points="135,25.83 166.78,40.59 103.22,40.59 135,25.83 166.78,40.59 166.78,60.92 103.27,60.92      103.27,60.93 103.22,60.93 103.22,40.59    "></polyline>			<path class="st6" d="M101.21,41.51v44.03H67.15V57.25l0.01-0.01L101.21,41.51z M99.38,61.14v-9.73h-1.52v9.73H99.38z"></path>			<path class="st6" d="M168.75,41.51v44.03h34.06V57.25l-0.01-0.01L168.75,41.51z M170.59,61.14v-9.73h1.52v9.73H170.59z"></path>			<g>				<path class="st6" d="M166.74,62.92v22.53h-14.33V62.92H166.74z M155.74,73.9v-9.73h-1.52v9.73H155.74z"></path>			</g>			<g>				<path class="st6" d="M136.02,62.92v22.53h14.33V62.92H136.02z M147.02,73.9v-9.73h1.52v9.73H147.02z"></path>			</g>			<path class="st6" d="M103.26,85.47v-6.19h30.78v6.19H103.26z M124.26,83.13v-1.52h-11.29v1.52H124.26z"></path>			<path class="st6" d="M103.26,69.1v-6.19h30.78v6.19H103.26z M124.26,66.75v-1.52h-11.29v1.52H124.26z"></path>			<path class="st6" d="M103.26,77.27v-6.19h30.78v6.19H103.26z M124.26,74.93v-1.52h-11.29v1.52H124.26z"></path>		</g>		<g id="Maison_bas_9_">			<g>				<g>					<line class="st11" x1="212.37" y1="139.93" x2="57.63" y2="139.93"></line>					<line class="st12" x1="212.38" y1="139.93" x2="212.38" y2="124.94"></line>					<line class="st12" x1="57.62" y1="139.93" x2="57.62" y2="124.94"></line>				</g>			</g>		</g>		<g>			<line class="st12" x1="212.38" y1="84.43" x2="212.38" y2="51.48"></line>			<line class="st12" x1="57.62" y1="84.43" x2="57.62" y2="51.48"></line>			<polyline class="st12" points="212.13,51.09 135,15.2 57.87,51.09    "></polyline>		</g>		<g>			<rect x="1.74" y="92.62" class="st5" width="266.52" height="20.58"></rect>			<path class="st2" d="M11.84,92.82v1.06H4.43v3.57h6.99v1.06H4.43v3.91h7.71v1.06H3V92.82H11.84z"></path>			<path class="st2" d="M23.39,93.43c0.84,0.57,1.31,1.42,1.43,2.54H23.4c-0.16-0.78-0.51-1.34-1.05-1.72     c-0.56-0.39-1.35-0.57-2.36-0.57c-0.93,0-1.64,0.12-2.17,0.39c-0.59,0.3-0.89,0.75-0.89,1.36c0,0.54,0.35,0.97,1.07,1.3     c0.31,0.15,1.08,0.37,2.29,0.67c1.64,0.42,2.73,0.76,3.25,1.03c1.03,0.54,1.56,1.28,1.56,2.25c0,0.93-0.44,1.67-1.31,2.21     c-0.87,0.52-2.04,0.79-3.53,0.79c-1.47,0-2.62-0.27-3.46-0.81c-0.98-0.64-1.52-1.61-1.62-2.93h1.42     c0.12,0.93,0.51,1.61,1.14,2.05c0.58,0.39,1.42,0.6,2.53,0.6c1.01,0,1.85-0.16,2.48-0.49c0.63-0.33,0.94-0.78,0.94-1.34     c0-0.67-0.42-1.2-1.24-1.57c-0.35-0.18-1.24-0.43-2.64-0.78c-1.5-0.39-2.46-0.69-2.87-0.87c-0.96-0.48-1.43-1.17-1.43-2.06     c0-0.93,0.45-1.66,1.38-2.17c0.82-0.48,1.89-0.72,3.18-0.72C21.46,92.61,22.58,92.88,23.39,93.43z"></path>			<path class="st2" d="M33.76,92.82c2.87,0,4.3,1.05,4.3,3.14c0,2.11-1.45,3.17-4.32,3.17h-3.65v4.36h-1.43V92.82H33.76z      M30.09,98.07h3.58c1.01,0,1.75-0.18,2.24-0.52c0.47-0.34,0.72-0.87,0.72-1.58c0-0.72-0.24-1.24-0.73-1.55     c-0.49-0.36-1.22-0.52-2.22-0.52h-3.58V98.07z"></path>			<path class="st2" d="M46.93,92.82l4.91,10.67h-1.55l-1.33-2.99h-5.73l-1.33,2.99h-1.54l4.91-10.67H46.93z M48.5,99.47l-2.36-5.33     h-0.07l-2.39,5.33H48.5z"></path>			<path class="st2" d="M63.72,93.55c0.94,0.63,1.5,1.48,1.68,2.54h-1.38c-0.17-0.78-0.63-1.37-1.33-1.79     c-0.68-0.4-1.5-0.6-2.48-0.6c-1.45,0-2.57,0.43-3.35,1.3c-0.73,0.81-1.1,1.87-1.1,3.2c0,1.33,0.35,2.39,1.08,3.17     c0.77,0.82,1.87,1.24,3.34,1.24c1,0,1.83-0.22,2.53-0.67c0.73-0.48,1.24-1.18,1.48-2.11h1.38c-0.28,1.24-0.93,2.21-1.96,2.9     c-0.96,0.64-2.11,0.97-3.44,0.97c-1.94,0-3.42-0.55-4.46-1.64c-0.94-0.99-1.4-2.27-1.4-3.85c0-1.58,0.47-2.88,1.43-3.9     c1.05-1.13,2.55-1.69,4.47-1.69C61.6,92.61,62.77,92.93,63.72,93.55z"></path>			<path class="st2" d="M78.14,92.82v1.06h-7.41v3.57h6.99v1.06h-6.99v3.91h7.71v1.06H69.3V92.82H78.14z"></path>			<path class="st2" d="M97.25,93.43c0.84,0.57,1.31,1.42,1.43,2.54h-1.42c-0.16-0.78-0.51-1.34-1.05-1.72     c-0.56-0.39-1.35-0.57-2.36-0.57c-0.93,0-1.64,0.12-2.17,0.39c-0.59,0.3-0.89,0.75-0.89,1.36c0,0.54,0.35,0.97,1.07,1.3     c0.31,0.15,1.08,0.37,2.29,0.67c1.64,0.42,2.73,0.76,3.25,1.03c1.03,0.54,1.56,1.28,1.56,2.25c0,0.93-0.44,1.67-1.31,2.21     c-0.87,0.52-2.04,0.79-3.53,0.79c-1.47,0-2.62-0.27-3.46-0.81c-0.98-0.64-1.52-1.61-1.62-2.93h1.42     c0.12,0.93,0.51,1.61,1.14,2.05c0.58,0.39,1.42,0.6,2.53,0.6c1.01,0,1.85-0.16,2.48-0.49c0.63-0.33,0.94-0.78,0.94-1.34     c0-0.67-0.42-1.2-1.24-1.57c-0.35-0.18-1.24-0.43-2.64-0.78c-1.5-0.39-2.46-0.69-2.87-0.87c-0.96-0.48-1.43-1.17-1.43-2.06     c0-0.93,0.45-1.66,1.38-2.17c0.82-0.48,1.89-0.72,3.18-0.72C95.33,92.61,96.45,92.88,97.25,93.43z"></path>			<path class="st2" d="M103.96,92.82v6.59c0,1.05,0.26,1.84,0.82,2.38c0.58,0.55,1.48,0.84,2.73,0.84c1.22,0,2.13-0.28,2.73-0.84     c0.54-0.54,0.82-1.33,0.82-2.38v-6.59h1.43v6.57c0,1.39-0.42,2.45-1.24,3.18c-0.86,0.75-2.1,1.12-3.74,1.12     c-1.64,0-2.88-0.37-3.72-1.11c-0.84-0.75-1.26-1.81-1.26-3.2v-6.57H103.96z"></path>			<path class="st2" d="M122.12,92.82c1.24,0,2.22,0.24,2.94,0.73c0.73,0.51,1.12,1.25,1.12,2.24c0,0.6-0.19,1.12-0.58,1.58     c-0.42,0.48-0.98,0.78-1.69,0.93v0.03c1.19,0.22,1.85,0.87,1.99,1.94l0.19,1.64c0.07,0.66,0.3,1.18,0.66,1.57h-1.56     c-0.28-0.36-0.45-0.82-0.51-1.42l-0.16-1.42c-0.07-0.63-0.33-1.09-0.79-1.36c-0.42-0.27-1.01-0.39-1.8-0.39h-3.77v4.59h-1.43     V92.82H122.12z M118.17,97.84h3.77c0.91,0,1.62-0.19,2.11-0.55c0.44-0.34,0.66-0.82,0.66-1.45c0-0.66-0.23-1.15-0.65-1.46     c-0.45-0.33-1.17-0.49-2.13-0.49h-3.77V97.84z"></path>			<path class="st2" d="M139.64,92.82l4.65,9.1h0.05l4.63-9.1h1.78v10.67h-1.43V95h-0.05l-4.32,8.49h-1.29L139.34,95h-0.05v8.49     h-1.43V92.82H139.64z"></path>			<path class="st2" d="M163.85,92.82v1.06h-7.41v3.57h6.99v1.06h-6.99v3.91h7.71v1.06h-9.14V92.82H163.85z"></path>			<path class="st2" d="M175.4,93.43c0.84,0.57,1.31,1.42,1.43,2.54h-1.42c-0.16-0.78-0.51-1.34-1.05-1.72     c-0.56-0.39-1.35-0.57-2.36-0.57c-0.93,0-1.64,0.12-2.17,0.39c-0.59,0.3-0.89,0.75-0.89,1.36c0,0.54,0.35,0.97,1.07,1.3     c0.31,0.15,1.08,0.37,2.29,0.67c1.64,0.42,2.73,0.76,3.25,1.03c1.03,0.54,1.55,1.28,1.55,2.25c0,0.93-0.44,1.67-1.31,2.21     c-0.87,0.52-2.04,0.79-3.53,0.79c-1.47,0-2.62-0.27-3.46-0.81c-0.98-0.64-1.52-1.61-1.62-2.93h1.42     c0.12,0.93,0.51,1.61,1.14,2.05c0.58,0.39,1.42,0.6,2.53,0.6c1.01,0,1.85-0.16,2.48-0.49c0.63-0.33,0.94-0.78,0.94-1.34     c0-0.67-0.42-1.2-1.24-1.57c-0.35-0.18-1.24-0.43-2.64-0.78c-1.5-0.39-2.46-0.69-2.87-0.87c-0.96-0.48-1.43-1.17-1.43-2.06     c0-0.93,0.46-1.66,1.38-2.17c0.82-0.48,1.89-0.72,3.18-0.72C173.47,92.61,174.59,92.88,175.4,93.43z"></path>			<path class="st2" d="M182.1,92.82v6.59c0,1.05,0.26,1.84,0.82,2.38c0.58,0.55,1.49,0.84,2.73,0.84c1.22,0,2.13-0.28,2.73-0.84     c0.54-0.54,0.82-1.33,0.82-2.38v-6.59h1.43v6.57c0,1.39-0.42,2.45-1.24,3.18c-0.86,0.75-2.1,1.12-3.74,1.12s-2.88-0.37-3.72-1.11     c-0.84-0.75-1.26-1.81-1.26-3.2v-6.57H182.1z"></path>			<path class="st2" d="M200.27,92.82c1.24,0,2.22,0.24,2.94,0.73c0.73,0.51,1.12,1.25,1.12,2.24c0,0.6-0.19,1.12-0.58,1.58     c-0.42,0.48-0.98,0.78-1.7,0.93v0.03c1.19,0.22,1.85,0.87,1.99,1.94l0.19,1.64c0.07,0.66,0.3,1.18,0.66,1.57h-1.55     c-0.28-0.36-0.45-0.82-0.51-1.42l-0.16-1.42c-0.07-0.63-0.33-1.09-0.79-1.36c-0.42-0.27-1.01-0.39-1.8-0.39h-3.77v4.59h-1.43     V92.82H200.27z M196.32,97.84h3.77c0.91,0,1.62-0.19,2.11-0.55c0.44-0.34,0.66-0.82,0.66-1.45c0-0.66-0.23-1.15-0.65-1.46     c-0.45-0.33-1.17-0.49-2.13-0.49h-3.77V97.84z"></path>			<path class="st2" d="M217.28,92.82v1.06h-7.41v3.57h6.99v1.06h-6.99v3.91h7.71v1.06h-9.14V92.82H217.28z"></path>			<path class="st2" d="M230.4,92.82v10.67h-1.42V92.82H230.4z"></path>			<path class="st2" d="M236.27,92.82l7.06,8.68h0.05v-8.68h1.43v10.67h-1.47l-7.09-8.77h-0.05v8.77h-1.43V92.82H236.27z"></path>			<path class="st2" d="M257.94,93.55c0.94,0.63,1.5,1.48,1.68,2.54h-1.38c-0.17-0.78-0.63-1.37-1.33-1.79     c-0.68-0.4-1.5-0.6-2.48-0.6c-1.45,0-2.57,0.43-3.35,1.3c-0.73,0.81-1.1,1.87-1.1,3.2c0,1.33,0.35,2.39,1.08,3.17     c0.77,0.82,1.87,1.24,3.34,1.24c1,0,1.83-0.22,2.53-0.67c0.73-0.48,1.24-1.18,1.49-2.11h1.38c-0.28,1.24-0.93,2.21-1.96,2.9     c-0.96,0.64-2.11,0.97-3.44,0.97c-1.94,0-3.42-0.55-4.46-1.64c-0.94-0.99-1.4-2.27-1.4-3.85c0-1.58,0.47-2.88,1.43-3.9     c1.05-1.13,2.55-1.69,4.47-1.69C255.83,92.61,257,92.93,257.94,93.55z"></path>			<path class="st2" d="M265.33,101.98c0.21,0.18,0.31,0.39,0.31,0.66c0,0.25-0.1,0.46-0.31,0.64c-0.21,0.18-0.47,0.27-0.75,0.27     c-0.31,0-0.56-0.09-0.75-0.27c-0.21-0.18-0.31-0.39-0.31-0.64c0-0.27,0.11-0.48,0.31-0.66c0.19-0.18,0.44-0.27,0.75-0.27     C264.86,101.71,265.12,101.8,265.33,101.98z"></path>		</g>		<g>			<rect x="27.75" y="111.18" class="st5" width="214.5" height="9.5"></rect>			<path class="st2" d="M31.66,111.3c0.73,0,1.31,0.14,1.73,0.43c0.43,0.3,0.66,0.74,0.66,1.32c0,0.35-0.11,0.66-0.34,0.93     c-0.25,0.28-0.58,0.46-1,0.55v0.02c0.7,0.13,1.09,0.51,1.17,1.14l0.11,0.97c0.04,0.39,0.18,0.7,0.39,0.92h-0.92     c-0.16-0.21-0.27-0.48-0.3-0.84l-0.09-0.84c-0.04-0.37-0.2-0.64-0.46-0.8c-0.25-0.16-0.6-0.23-1.06-0.23h-2.23v2.7h-0.84v-6.29     H31.66z M29.34,114.26h2.23c0.54,0,0.96-0.11,1.25-0.33c0.26-0.2,0.39-0.48,0.39-0.85c0-0.39-0.13-0.68-0.38-0.86     c-0.27-0.19-0.69-0.29-1.26-0.29h-2.23V114.26z"></path>			<path class="st2" d="M41.28,111.3v0.62h-4.37v2.1h4.12v0.62h-4.12v2.31h4.54v0.62h-5.39v-6.29H41.28z M39.9,109.66l-1.41,1.29     h-0.57l1.04-1.29H39.9z"></path>			<path class="st2" d="M44.13,111.3l4.16,5.12h0.03v-5.12h0.84v6.29H48.3l-4.18-5.17h-0.03v5.17h-0.84v-6.29H44.13z"></path>			<path class="st2" d="M57.08,112.12c0.6,0.6,0.91,1.37,0.91,2.33c0,0.95-0.31,1.72-0.91,2.32c-0.64,0.62-1.51,0.94-2.62,0.94     s-1.97-0.32-2.61-0.94c-0.61-0.6-0.91-1.37-0.91-2.32c0-0.95,0.3-1.73,0.91-2.32c0.64-0.63,1.5-0.95,2.62-0.95     C55.56,111.18,56.44,111.49,57.08,112.12z M52.47,112.57c-0.45,0.48-0.68,1.1-0.68,1.88c0,0.78,0.23,1.4,0.68,1.88     c0.47,0.49,1.14,0.74,1.99,0.74s1.51-0.25,1.99-0.72c0.45-0.48,0.69-1.1,0.69-1.89c0-0.8-0.24-1.43-0.69-1.91     c-0.47-0.48-1.13-0.72-1.98-0.72S52.96,112.07,52.47,112.57z"></path>			<path class="st2" d="M60.01,111.3l2.3,5.5h0.03l2.3-5.5h0.93l-2.72,6.29H61.8l-2.72-6.29H60.01z"></path>			<path class="st2" d="M70.09,111.3l2.89,6.29h-0.92l-0.78-1.76h-3.38l-0.78,1.76h-0.91l2.89-6.29H70.09z M71.02,115.22l-1.39-3.14     h-0.04l-1.41,3.14H71.02z"></path>			<path class="st2" d="M79.8,111.3v0.62h-2.6v5.66h-0.83v-5.66h-2.6v-0.62H79.8z"></path>			<path class="st2" d="M82.23,111.3v6.29h-0.83v-6.29H82.23z"></path>			<path class="st2" d="M90.21,112.12c0.6,0.6,0.91,1.37,0.91,2.33c0,0.95-0.31,1.72-0.91,2.32c-0.64,0.62-1.51,0.94-2.62,0.94     s-1.97-0.32-2.61-0.94c-0.61-0.6-0.91-1.37-0.91-2.32c0-0.95,0.3-1.73,0.91-2.32c0.64-0.63,1.5-0.95,2.62-0.95     C88.69,111.18,89.57,111.49,90.21,112.12z M85.6,112.57c-0.45,0.48-0.68,1.1-0.68,1.88c0,0.78,0.23,1.4,0.68,1.88     c0.47,0.49,1.14,0.74,1.99,0.74s1.51-0.25,1.99-0.72c0.45-0.48,0.69-1.1,0.69-1.89c0-0.8-0.24-1.43-0.69-1.91     c-0.47-0.48-1.13-0.72-1.98-0.72S86.09,112.07,85.6,112.57z"></path>			<path class="st2" d="M93.79,111.3l4.16,5.12h0.03v-5.12h0.84v6.29h-0.87l-4.18-5.17h-0.03v5.17H92.9v-6.29H93.79z"></path>			<path class="st2" d="M105.89,115.01v0.6h-5.2v-0.6H105.89z"></path>			<path class="st2" d="M108.66,111.3v6.29h-0.83v-6.29H108.66z"></path>			<path class="st2" d="M111.7,111.3l4.16,5.12h0.03v-5.12h0.84v6.29h-0.87l-4.18-5.17h-0.03v5.17h-0.84v-6.29H111.7z"></path>			<path class="st2" d="M123.27,111.66c0.5,0.33,0.77,0.84,0.85,1.5h-0.83c-0.09-0.46-0.3-0.79-0.62-1.01     c-0.33-0.23-0.79-0.33-1.39-0.33c-0.55,0-0.97,0.07-1.28,0.23c-0.35,0.18-0.53,0.44-0.53,0.8c0,0.32,0.21,0.57,0.63,0.77     c0.19,0.09,0.64,0.22,1.35,0.4c0.97,0.25,1.61,0.45,1.92,0.61c0.61,0.32,0.92,0.76,0.92,1.33c0,0.55-0.26,0.99-0.77,1.3     c-0.51,0.31-1.21,0.47-2.08,0.47c-0.87,0-1.54-0.16-2.04-0.48c-0.58-0.38-0.9-0.95-0.96-1.73h0.83c0.07,0.55,0.3,0.95,0.67,1.21     c0.34,0.23,0.83,0.35,1.49,0.35c0.6,0,1.09-0.1,1.46-0.29c0.37-0.19,0.56-0.46,0.56-0.79c0-0.4-0.25-0.7-0.73-0.92     c-0.21-0.11-0.73-0.26-1.56-0.46c-0.89-0.23-1.45-0.41-1.69-0.51c-0.57-0.28-0.84-0.69-0.84-1.21c0-0.55,0.27-0.98,0.81-1.28     c0.48-0.28,1.11-0.42,1.87-0.42C122.13,111.18,122.79,111.34,123.27,111.66z"></path>			<path class="st2" d="M131.42,111.3v0.62h-2.6v5.66h-0.83v-5.66h-2.6v-0.62H131.42z"></path>			<path class="st2" d="M136.08,111.3l2.89,6.29h-0.92l-0.78-1.76h-3.38l-0.78,1.76h-0.91l2.89-6.29H136.08z M137,115.22l-1.39-3.14     h-0.04l-1.41,3.14H137z"></path>			<path class="st2" d="M141.16,111.3v5.66h4.25v0.62h-5.09v-6.29H141.16z"></path>			<path class="st2" d="M147.83,111.3v5.66h4.25v0.62H147v-6.29H147.83z"></path>			<path class="st2" d="M156.8,111.3l2.89,6.29h-0.92l-0.78-1.76h-3.38l-0.78,1.76h-0.91l2.89-6.29H156.8z M157.72,115.22     l-1.39-3.14h-0.04l-1.41,3.14H157.72z"></path>			<path class="st2" d="M166.5,111.3v0.62h-2.6v5.66h-0.83v-5.66h-2.6v-0.62H166.5z"></path>			<path class="st2" d="M168.93,111.3v6.29h-0.83v-6.29H168.93z"></path>			<path class="st2" d="M176.91,112.12c0.6,0.6,0.91,1.37,0.91,2.33c0,0.95-0.31,1.72-0.91,2.32c-0.64,0.62-1.51,0.94-2.62,0.94     c-1.1,0-1.97-0.32-2.61-0.94c-0.61-0.6-0.91-1.37-0.91-2.32c0-0.95,0.3-1.73,0.91-2.32c0.64-0.63,1.5-0.95,2.62-0.95     C175.39,111.18,176.27,111.49,176.91,112.12z M172.3,112.57c-0.45,0.48-0.68,1.1-0.68,1.88c0,0.78,0.23,1.4,0.68,1.88     c0.47,0.49,1.14,0.74,1.99,0.74c0.84,0,1.51-0.25,1.99-0.72c0.45-0.48,0.69-1.1,0.69-1.89c0-0.8-0.24-1.43-0.69-1.91     c-0.47-0.48-1.13-0.72-1.98-0.72S172.79,112.07,172.3,112.57z"></path>			<path class="st2" d="M180.49,111.3l4.16,5.12h0.03v-5.12h0.84v6.29h-0.87l-4.18-5.17h-0.03v5.17h-0.84v-6.29H180.49z"></path>			<path class="st2" d="M192.59,115.01v0.6h-5.2v-0.6H192.59z"></path>			<path class="st2" d="M199.39,111.3v0.62h-4.08v2.11h3.86v0.62h-3.86v2.92h-0.84v-6.29H199.39z"></path>			<path class="st2" d="M201.92,111.3v6.29h-0.83v-6.29H201.92z"></path>			<path class="st2" d="M204.96,111.3l4.16,5.12h0.03v-5.12H210v6.29h-0.87l-4.18-5.17h-0.03v5.17h-0.84v-6.29H204.96z"></path>			<path class="st2" d="M212.99,111.3v6.29h-0.83v-6.29H212.99z"></path>			<path class="st2" d="M220.61,111.3v0.62h-2.6v5.66h-0.83v-5.66h-2.6v-0.62H220.61z"></path>			<path class="st2" d="M223.04,111.3v6.29h-0.83v-6.29H223.04z"></path>			<path class="st2" d="M231.02,112.12c0.6,0.6,0.91,1.37,0.91,2.33c0,0.95-0.31,1.72-0.91,2.32c-0.64,0.62-1.51,0.94-2.62,0.94     c-1.1,0-1.97-0.32-2.61-0.94c-0.61-0.6-0.91-1.37-0.91-2.32c0-0.95,0.3-1.73,0.91-2.32c0.64-0.63,1.5-0.95,2.62-0.95     C229.5,111.18,230.38,111.49,231.02,112.12z M226.41,112.57c-0.45,0.48-0.68,1.1-0.68,1.88c0,0.78,0.23,1.4,0.68,1.88     c0.47,0.49,1.14,0.74,1.99,0.74c0.84,0,1.51-0.25,1.99-0.72c0.45-0.48,0.69-1.1,0.69-1.89c0-0.8-0.24-1.43-0.69-1.91     c-0.47-0.48-1.13-0.72-1.98-0.72S226.9,112.07,226.41,112.57z"></path>			<path class="st2" d="M234.59,111.3l4.16,5.12h0.03v-5.12h0.84v6.29h-0.87l-4.18-5.17h-0.03v5.17h-0.84v-6.29H234.59z"></path>		</g>	</g></g></svg>